<svg xmlns="http://www.w3.org/2000/svg" width="19.642" height="22.77" viewBox="0 0 19.642 22.77"><defs><style>.a{fill:#fd0786;}</style></defs><path class="a" d="M17.422,21.417v-1.4a1.579,1.579,0,1,0-1.334,0v1.4a2.912,2.912,0,1,1,1.33-5.671V4.544H12.637V21.428H11.3V1.9H10.22V0H1.083V1.9H0V22.77l19.642-.007V21.428h-2.22v-.011ZM15.7,14.046H14.364v-1.9H15.7Zm0-3.795H14.364v-1.9H15.7Zm-7.723,1.9v1.9H6.641v-1.9Zm-1.334-1.9v-1.9H7.975v1.9Zm1.334,5.692v1.9H6.641v-1.9Zm0-9.487H6.641v-1.9H7.975ZM3.32,4.558H4.655v1.9H3.32Zm0,3.795H4.655v1.9H3.32Zm0,3.8H4.655v1.9H3.32Zm0,3.795H4.655v1.9H3.32Zm0,0"/></svg>