<svg xmlns="http://www.w3.org/2000/svg" width="10.987" height="13.503" viewBox="0 0 10.987 13.503"><defs><style>.a{fill:#f33;}</style></defs><g transform="translate(-39.68)"><g transform="translate(39.68)"><path class="a" d="M47.876,1.72,47.145.276A.508.508,0,0,0,46.707,0H43.624a.478.478,0,0,0-.438.276l-.73,1.444H39.68v.974h.7V13.016a.478.478,0,0,0,.487.487h8.618a.478.478,0,0,0,.487-.487V2.694h.7V1.72H47.876ZM43.916.974h2.5l.373.747H43.543Zm-.341,9.673a.487.487,0,1,1-.974,0V4.917a.487.487,0,1,1,.974,0Zm2.077,0a.487.487,0,0,1-.974,0V4.917a.487.487,0,0,1,.974,0Zm2.077,0a.488.488,0,0,1-.487.487.478.478,0,0,1-.487-.487V4.917a.487.487,0,1,1,.974,0Z" transform="translate(-39.68)"/></g></g></svg>