<svg xmlns="http://www.w3.org/2000/svg" width="58.649" height="74.872" viewBox="0 0 58.649 74.872"><g transform="translate(0)"><path d="M17.748,22h31.2a1.248,1.248,0,0,1,0,2.5h-31.2a1.248,1.248,0,0,1,0-2.5Z" transform="translate(-4.022 5.453)"/><path d="M30.226,16.5H17.748a1.248,1.248,0,0,1,0-2.5H30.226a1.248,1.248,0,0,1,0,2.5Z" transform="translate(14.696 3.47)"/><path d="M17.748,30h31.2a1.248,1.248,0,0,1,0,2.5h-31.2a1.248,1.248,0,0,1,0-2.5Z" transform="translate(-4.022 7.436)"/><path d="M17.748,38h31.2a1.248,1.248,0,0,1,0,2.5h-31.2a1.248,1.248,0,0,1,0-2.5Z" transform="translate(-4.022 9.419)"/><path d="M17.748,46h31.2a1.248,1.248,0,0,1,0,2.5h-31.2a1.248,1.248,0,0,1,0-2.5Z" transform="translate(-4.022 11.402)"/><path d="M24.7,0H65.149V74.872H6.5V18.2ZM23.97,4.26,10.76,17.47H23.97ZM62.653,72.377V2.5H26.465v17.47H9V72.377Z" transform="translate(-6.5)"/></g></svg>