<svg xmlns="http://www.w3.org/2000/svg" width="24.372" height="24.372" viewBox="0 0 24.372 24.372"><defs><style>.a{fill:#fd0786;}</style></defs><path class="a" d="M12.186,0A12.186,12.186,0,1,0,24.372,12.186,12.179,12.179,0,0,0,12.186,0Zm0,22.747A10.561,10.561,0,1,1,22.747,12.186,10.573,10.573,0,0,1,12.186,22.747Z"/><g transform="translate(10.418 6.605)"><path class="a" d="M223.132,144.1h-2.656v-4.525a.812.812,0,0,0-1.625,0v5.337a.812.812,0,0,0,.812.812h3.468a.812.812,0,1,0,0-1.625Z" transform="translate(-218.852 -138.765)"/></g></svg>